<svg width="192" height="48" viewBox="0 0 192 48" fill="none" xmlns="http://www.w3.org/2000/svg">
<path d="M55.2344 9.25H58.9531L65.1719 26.375L71.375 9.25H75.1094L66.6562 32H63.6719L55.2344 9.25ZM53.3594 9.25H57L57.6562 24.9844V32H53.3594V9.25ZM73.3281 9.25H76.9844V32H72.6875V24.9844L73.3281 9.25ZM86 30.125L90.5312 15.0938H94.9531L88.1719 34.5625C88.0156 34.9792 87.8125 35.4323 87.5625 35.9219C87.3229 36.4115 87 36.875 86.5938 37.3125C86.1875 37.7604 85.6771 38.125 85.0625 38.4062C84.4583 38.6875 83.724 38.8281 82.8594 38.8281C82.4844 38.8281 82.151 38.8021 81.8594 38.75C81.5677 38.6979 81.2604 38.6302 80.9375 38.5469V35.4531C81.0417 35.4635 81.1615 35.4688 81.2969 35.4688C81.4427 35.4792 81.5677 35.4844 81.6719 35.4844C82.276 35.4844 82.776 35.4115 83.1719 35.2656C83.5677 35.1302 83.8854 34.9062 84.125 34.5938C84.375 34.2917 84.5833 33.8958 84.75 33.4062L86 30.125ZM83.7656 15.0938L87.5938 27.5469L88.2656 31.9062L85.4219 32.4219L79.3125 15.0938H83.7656Z" fill="white"/>
<path d="M101.344 18.5938V32H96.8281V15.0938H101.062L101.344 18.5938ZM100.719 22.9531H99.4688C99.4688 21.776 99.6094 20.6927 99.8906 19.7031C100.182 18.7031 100.604 17.8385 101.156 17.1094C101.719 16.3698 102.411 15.7969 103.234 15.3906C104.057 14.9844 105.01 14.7812 106.094 14.7812C106.844 14.7812 107.531 14.8958 108.156 15.125C108.781 15.3438 109.318 15.6927 109.766 16.1719C110.224 16.6406 110.578 17.2552 110.828 18.0156C111.078 18.7656 111.203 19.6667 111.203 20.7188V32H106.703V21.2188C106.703 20.4479 106.599 19.8542 106.391 19.4375C106.182 19.0208 105.885 18.7292 105.5 18.5625C105.125 18.3958 104.672 18.3125 104.141 18.3125C103.557 18.3125 103.047 18.4323 102.609 18.6719C102.182 18.9115 101.828 19.2448 101.547 19.6719C101.266 20.0885 101.057 20.5781 100.922 21.1406C100.786 21.7031 100.719 22.3073 100.719 22.9531ZM110.781 22.4375L109.172 22.6406C109.172 21.5365 109.307 20.5104 109.578 19.5625C109.859 18.6146 110.271 17.7812 110.812 17.0625C111.365 16.3438 112.047 15.7865 112.859 15.3906C113.672 14.9844 114.609 14.7812 115.672 14.7812C116.484 14.7812 117.224 14.901 117.891 15.1406C118.557 15.3698 119.125 15.7396 119.594 16.25C120.073 16.75 120.438 17.4062 120.688 18.2188C120.948 19.0312 121.078 20.026 121.078 21.2031V32H116.562V21.2031C116.562 20.4219 116.458 19.8281 116.25 19.4219C116.052 19.0052 115.76 18.7188 115.375 18.5625C115 18.3958 114.552 18.3125 114.031 18.3125C113.49 18.3125 113.016 18.4219 112.609 18.6406C112.203 18.849 111.865 19.1406 111.594 19.5156C111.323 19.8906 111.12 20.3281 110.984 20.8281C110.849 21.3177 110.781 21.8542 110.781 22.4375ZM123.844 23.7188V23.3906C123.844 22.151 124.021 21.0104 124.375 19.9688C124.729 18.9167 125.245 18.0052 125.922 17.2344C126.599 16.4635 127.432 15.8646 128.422 15.4375C129.411 15 130.547 14.7812 131.828 14.7812C133.109 14.7812 134.25 15 135.25 15.4375C136.25 15.8646 137.089 16.4635 137.766 17.2344C138.453 18.0052 138.974 18.9167 139.328 19.9688C139.682 21.0104 139.859 22.151 139.859 23.3906V23.7188C139.859 24.9479 139.682 26.0885 139.328 27.1406C138.974 28.1823 138.453 29.0938 137.766 29.875C137.089 30.6458 136.255 31.2448 135.266 31.6719C134.276 32.099 133.141 32.3125 131.859 32.3125C130.578 32.3125 129.438 32.099 128.438 31.6719C127.448 31.2448 126.609 30.6458 125.922 29.875C125.245 29.0938 124.729 28.1823 124.375 27.1406C124.021 26.0885 123.844 24.9479 123.844 23.7188ZM128.344 23.3906V23.7188C128.344 24.4271 128.406 25.0885 128.531 25.7031C128.656 26.3177 128.854 26.8594 129.125 27.3281C129.406 27.7865 129.771 28.1458 130.219 28.4062C130.667 28.6667 131.214 28.7969 131.859 28.7969C132.484 28.7969 133.021 28.6667 133.469 28.4062C133.917 28.1458 134.276 27.7865 134.547 27.3281C134.818 26.8594 135.016 26.3177 135.141 25.7031C135.276 25.0885 135.344 24.4271 135.344 23.7188V23.3906C135.344 22.7031 135.276 22.0573 135.141 21.4531C135.016 20.8385 134.812 20.2969 134.531 19.8281C134.26 19.349 133.901 18.974 133.453 18.7031C133.005 18.4323 132.464 18.2969 131.828 18.2969C131.193 18.2969 130.651 18.4323 130.203 18.7031C129.766 18.974 129.406 19.349 129.125 19.8281C128.854 20.2969 128.656 20.8385 128.531 21.4531C128.406 22.0573 128.344 22.7031 128.344 23.3906ZM147.031 18.7031V32H142.531V15.0938H146.75L147.031 18.7031ZM146.375 22.9531H145.156C145.156 21.7031 145.318 20.5781 145.641 19.5781C145.964 18.5677 146.417 17.7083 147 17C147.583 16.2812 148.276 15.7344 149.078 15.3594C149.891 14.974 150.797 14.7812 151.797 14.7812C152.589 14.7812 153.312 14.8958 153.969 15.125C154.625 15.3542 155.188 15.7188 155.656 16.2188C156.135 16.7188 156.5 17.3802 156.75 18.2031C157.01 19.026 157.141 20.0312 157.141 21.2188V32H152.609V21.2031C152.609 20.4531 152.505 19.8698 152.297 19.4531C152.089 19.0365 151.781 18.7448 151.375 18.5781C150.979 18.401 150.49 18.3125 149.906 18.3125C149.302 18.3125 148.776 18.4323 148.328 18.6719C147.891 18.9115 147.526 19.2448 147.234 19.6719C146.953 20.0885 146.74 20.5781 146.594 21.1406C146.448 21.7031 146.375 22.3073 146.375 22.9531ZM168.344 32.3125C167.031 32.3125 165.854 32.1042 164.812 31.6875C163.771 31.2604 162.885 30.6719 162.156 29.9219C161.438 29.1719 160.885 28.3021 160.5 27.3125C160.115 26.3125 159.922 25.25 159.922 24.125V23.5C159.922 22.2188 160.104 21.0469 160.469 19.9844C160.833 18.9219 161.354 18 162.031 17.2188C162.719 16.4375 163.552 15.8385 164.531 15.4219C165.51 14.9948 166.615 14.7812 167.844 14.7812C169.042 14.7812 170.104 14.9792 171.031 15.375C171.958 15.7708 172.734 16.3333 173.359 17.0625C173.995 17.7917 174.474 18.6667 174.797 19.6875C175.12 20.6979 175.281 21.8229 175.281 23.0625V24.9375H161.844V21.9375H170.859V21.5938C170.859 20.9688 170.745 20.4115 170.516 19.9219C170.297 19.4219 169.964 19.026 169.516 18.7344C169.068 18.4427 168.495 18.2969 167.797 18.2969C167.203 18.2969 166.693 18.4271 166.266 18.6875C165.839 18.9479 165.49 19.3125 165.219 19.7812C164.958 20.25 164.76 20.8021 164.625 21.4375C164.5 22.0625 164.438 22.75 164.438 23.5V24.125C164.438 24.8021 164.531 25.4271 164.719 26C164.917 26.5729 165.193 27.0677 165.547 27.4844C165.911 27.901 166.349 28.224 166.859 28.4531C167.38 28.6823 167.969 28.7969 168.625 28.7969C169.438 28.7969 170.193 28.6406 170.891 28.3281C171.599 28.0052 172.208 27.5208 172.719 26.875L174.906 29.25C174.552 29.7604 174.068 30.25 173.453 30.7188C172.849 31.1875 172.12 31.5729 171.266 31.875C170.411 32.1667 169.438 32.3125 168.344 32.3125ZM182.641 30.0938L187.125 15.0938H191.953L185.156 34.5469C185.01 34.974 184.812 35.4323 184.562 35.9219C184.323 36.4115 183.995 36.875 183.578 37.3125C183.172 37.7604 182.656 38.125 182.031 38.4062C181.417 38.6875 180.661 38.8281 179.766 38.8281C179.339 38.8281 178.99 38.8021 178.719 38.75C178.448 38.6979 178.125 38.625 177.75 38.5312V35.2344C177.865 35.2344 177.984 35.2344 178.109 35.2344C178.234 35.2448 178.354 35.25 178.469 35.25C179.062 35.25 179.547 35.1823 179.922 35.0469C180.297 34.9115 180.599 34.7031 180.828 34.4219C181.057 34.151 181.24 33.7969 181.375 33.3594L182.641 30.0938ZM180.766 15.0938L184.438 27.3438L185.078 32.1094L182.016 32.4375L175.938 15.0938H180.766Z" fill="#CE00AD"/>
<path d="M31.4821 23.4286V41M35.753 26.6234H29.3467C28.5538 26.6234 27.7934 26.9179 27.2328 27.4421C26.6721 27.9664 26.3571 28.6774 26.3571 29.4188C26.3571 30.1602 26.6721 30.8713 27.2328 31.3955C27.7934 31.9198 28.5538 32.2143 29.3467 32.2143H33.6176C34.4105 32.2143 35.1709 32.5088 35.7315 33.0331C36.2922 33.5573 36.6071 34.2683 36.6071 35.0097C36.6071 35.7511 36.2922 36.4622 35.7315 36.9864C35.1709 37.5107 34.4105 37.8052 33.6176 37.8052H26.3571" stroke="white" stroke-width="2" stroke-linecap="round" stroke-linejoin="round"/>
<rect width="19.0357" height="19.0357" rx="2" fill="#CE00AD"/>
<rect x="21.9643" width="19.0357" height="19.0357" rx="2" fill="#CE00AD"/>
<rect y="21.9643" width="19.0357" height="19.0357" rx="2" fill="#CE00AD"/>
</svg>
